<svg id="Layer_1" data-name="Layer 1" xmlns="http://www.w3.org/2000/svg" viewBox="0 0 382.3 381.98"><defs><style>.cls-1{fill:#ed1b24;}</style></defs><path class="cls-1" d="M-84.87,471c-105.84,0-190.94-85.46-190.93-191.76,0-104.77,85.78-190.18,191-190.22C20.85,89,106.54,174.59,106.5,280.09S20.92,471-84.87,471Zm.08-23.61c93-.07,167.55-74.81,167.54-168,0-91.88-75.09-166.65-167.36-166.67-92.44,0-167.71,74.92-167.73,167C-252.37,372.29-177.25,447.47-84.79,447.39Z" transform="translate(275.8 -89.02)"/><path class="cls-1" d="M-84.93,239.75l4.39-4.41,43.84-43.8c8.49-8.49,17.27-10.27,28.11-5.13,10.65,5.05,17.85,13.26,20.53,24.93,1.72,7.46.15,14.13-5.48,19.72-14.9,14.78-29.69,29.68-44.59,44.46-1.63,1.62-5.32,5.51-5.32,5.51s2.84,2.68,4.11,3.93c15,14.88,29.85,30,45,44.75,6.78,6.62,8.46,14.23,5.71,22.82-4.12,12.82-12.83,21.25-25.92,24.68-7.78,2.05-14.7.4-20.59-5.58-14.5-14.7-29.21-29.2-43.78-43.85-1.75-1.75-5.73-5.33-5.73-5.33-2,1.74-2.26,1.9-3.28,2.91-15.22,15.17-30.54,30.23-45.57,45.59-6.43,6.57-13.8,8.53-22.31,6-13-3.83-21.54-12.43-25.21-25.41-2.33-8.23-.55-15.55,6-21.88,16.33-15.91,32.34-32.16,48.94-48.74-1.6-1.7-3-3.26-4.46-4.73-14.73-14.71-29.32-29.58-44.27-44.06-7.31-7.08-8.69-15.19-5.54-24.2,4.1-11.73,12.27-19.7,24.3-23.2,8.44-2.46,15.91-.9,22.39,5.73,14.79,15.12,29.9,29.93,44.81,44.93C-87.63,236.69-84.93,239.75-84.93,239.75Z" transform="translate(275.8 -89.02)"/></svg>